PathFileType	4	(X/Y/Z)
DataRate	CameraRate	NumFrames	NumMarkers	Units	OrigDataRate	OrigDataStartFrame	OrigNumFrames	
	120.0	120.0	5	39	mm	120.0	1	231
Frame#	Time	midhip	hip_r	hip_l	knee_r	knee_l	ankle_r	ankle_l	midasis	asis_r	asis_l	psis_r	psis_l	epicondLat_r	epicondLat_l	epicondMed_r	epicondMed_l	malleolusLat_r	malleolusLat_l	malleolusMedv_r	malleolusMedv_l	heel_r	heel_l	sternalnotch	xyphoidprocess	neck	subclavicle_r	subclavicle_l	toe_r	toe_l	thighwand_r	thighwand_l	upperleg1_r	upperleg1_l	upperleg2_r	upperleg2_l	shankwand_r	shankwand_l	lowerleg1_r	lowerleg1_l
	X1	Y1	Z1	X2	Y2	Z2	X3	Y3	Z3	X4	Y4	Z4	X5	Y5	Z5	X6	Y6	Z6	X7	Y7	Z7	X8	Y8	Z8	X9	Y9	Z9	X10	Y10	Z10	X11	Y11	Z11	X12	Y12	Z12	X13	Y13	Z13	X14	Y14	Z14	X15	Y15	Z15	X16	Y16	Z16	X17	Y17	Z17	X18	Y18	Z18	X19	Y19	Z19	X20	Y20	Z20	X21	Y21	Z21	X22	Y22	Z22	X23	Y23	Z23	X24	Y24	Z24	X25	Y25	Z25	X26	Y26	Z26	X27	Y27	Z27	X28	Y28	Z28	X29	Y29	Z29	X30	Y30	Z30	X31	Y31	Z31	X32	Y32	Z32	X33	Y33	Z33	X34	Y34	Z34	X35	Y35	Z35	X36	Y36	Z36	X37	Y37	Z37	X38	Y38	Z38	X39	Y39	Z39

	1	0.00833	1388.217	635.676	-339.973	1406.188	642.112	-286.896	1396.870	644.148	-403.953	1399.132	341.698	-264.540	1408.170	342.457	-414.480	1383.998	54.744	-243.659	1403.690	56.241	-431.551	1465.034	684.941	-349.753	1471.876	683.446	-263.805	1458.193	686.435	-435.700	1346.701	751.880	-297.686	1338.439	751.143	-382.627	1400.193	345.086	-218.677	1399.158	343.764	-461.609	1388.374	342.334	-313.970	1414.530	338.881	-371.153	1378.933	57.413	-210.652	1389.533	58.203	-460.740	1392.180	53.884	-270.585	1412.808	53.320	-399.816	1345.573	37.838	-258.523	1351.769	37.823	-420.852	1431.362	1020.886	-336.994	1520.079	910.055	-342.530	1353.340	1040.031	-342.192	1450.540	1014.532	-300.089	1448.784	1013.431	-389.918	1474.977	41.734	-228.830	1488.138	39.690	-458.575	1515.863	432.407	-303.515	1448.081	425.189	-519.307	1447.106	486.280	-250.361	1445.777	485.138	-437.040	1435.257	398.241	-247.106	1454.874	401.768	-422.898	1407.644	146.829	-148.486	1500.207	164.315	-414.977	1396.445	201.120	-213.530	1434.881	219.721	-425.851
	2	0.01667	1388.285	635.684	-339.993	1406.129	642.144	-286.841	1397.009	644.160	-403.914	1399.098	341.741	-264.513	1408.186	342.467	-414.468	1383.993	54.760	-243.650	1403.659	56.246	-431.544	1465.103	684.930	-349.607	1471.805	683.448	-263.572	1458.401	686.412	-435.641	1346.679	751.932	-297.757	1338.645	751.191	-382.683	1400.140	345.125	-218.650	1399.211	343.783	-461.603	1390.354	341.379	-313.768	1414.492	338.832	-371.216	1378.916	57.427	-210.645	1389.526	58.211	-460.744	1392.128	53.915	-270.596	1412.800	53.312	-399.817	1345.568	37.845	-258.515	1351.780	37.828	-420.857	1431.646	1020.907	-336.993	1520.435	910.122	-342.302	1353.575	1040.015	-342.350	1450.772	1014.595	-300.058	1449.152	1013.418	-389.879	1474.947	41.745	-228.810	1488.149	39.670	-458.599	1516.367	432.585	-303.177	1448.353	425.186	-519.223	1447.021	486.324	-250.355	1445.960	485.132	-436.928	1436.356	397.966	-246.940	1454.970	401.720	-422.840	1407.607	146.835	-148.474	1500.193	164.314	-414.953	1396.378	201.143	-213.523	1434.871	219.781	-425.842
	3	0.02500	1388.356	635.695	-340.008	1406.084	642.170	-286.784	1397.154	644.175	-403.872	1399.061	341.779	-264.477	1408.196	342.476	-414.452	1383.988	54.773	-243.638	1403.634	56.246	-431.538	1465.183	684.914	-349.461	1471.751	683.439	-263.349	1458.615	686.389	-435.574	1346.671	751.990	-297.828	1338.863	751.238	-382.736	1400.086	345.161	-218.613	1399.252	343.802	-461.593	1391.295	341.045	-313.898	1414.432	338.896	-371.145	1378.898	57.437	-210.634	1389.521	58.214	-460.748	1392.098	53.963	-270.610	1412.766	53.312	-399.810	1345.568	37.850	-258.507	1351.791	37.834	-420.863	1431.919	1020.939	-336.985	1520.797	910.218	-342.114	1353.815	1039.988	-342.526	1451.009	1014.671	-300.014	1449.486	1013.422	-389.859	1474.924	41.751	-228.788	1488.159	39.642	-458.625	1516.932	432.761	-302.818	1448.622	425.169	-519.133	1446.953	486.372	-250.352	1446.127	485.118	-436.857	1436.669	397.872	-246.889	1455.045	401.761	-422.727	1407.568	146.843	-148.454	1500.181	164.312	-414.933	1396.308	201.185	-213.514	1434.864	219.840	-425.852
	4	0.03333	1388.437	635.701	-340.030	1406.058	642.183	-286.739	1397.309	644.190	-403.840	1399.023	341.801	-264.438	1408.201	342.482	-414.437	1383.984	54.779	-243.627	1403.615	56.238	-431.535	1465.280	684.888	-349.326	1471.719	683.411	-263.144	1458.841	686.365	-435.508	1346.677	752.049	-297.896	1339.101	751.284	-382.788	1400.033	345.183	-218.574	1399.283	343.816	-461.583	1391.649	340.997	-314.075	1414.343	338.970	-370.981	1378.883	57.440	-210.625	1389.518	58.209	-460.752	1392.096	54.001	-270.589	1412.735	53.327	-399.795	1345.572	37.853	-258.499	1351.803	37.843	-420.869	1432.212	1020.960	-336.919	1521.156	910.284	-341.875	1354.069	1039.968	-342.689	1451.269	1014.730	-299.925	1449.836	1013.412	-389.768	1474.910	41.750	-228.767	1488.172	39.604	-458.656	1517.482	432.910	-302.486	1448.888	425.137	-519.041	1446.877	486.390	-250.277	1446.294	485.088	-436.743	1436.596	397.866	-246.824	1455.108	401.784	-422.538	1407.528	146.848	-148.434	1500.173	164.309	-414.920	1396.235	201.217	-213.479	1434.842	219.866	-425.813
	5	0.04167	1388.533	635.700	-340.063	1406.052	642.180	-286.707	1397.480	644.202	-403.821	1398.987	341.801	-264.403	1408.200	342.481	-414.421	1383.981	54.775	-243.622	1403.601	56.220	-431.531	1465.396	684.851	-349.203	1471.709	683.362	-262.955	1459.083	686.340	-435.450	1346.695	752.103	-297.962	1339.360	751.326	-382.839	1399.984	345.183	-218.538	1399.306	343.821	-461.571	1391.910	340.944	-314.152	1414.280	338.978	-370.844	1378.871	57.432	-210.621	1389.519	58.193	-460.755	1392.110	54.008	-270.556	1412.722	53.332	-399.782	1345.578	37.852	-258.496	1351.817	37.851	-420.878	1432.526	1020.960	-336.847	1521.510	910.306	-341.582	1354.327	1039.955	-342.842	1451.527	1014.763	-299.828	1450.234	1013.378	-389.654	1474.905	41.740	-228.749	1488.191	39.556	-458.694	1517.930	433.012	-302.221	1449.145	425.091	-518.949	1446.800	486.388	-250.167	1446.444	485.037	-436.616	1436.533	397.850	-246.722	1455.178	401.749	-422.357	1407.493	146.850	-148.415	1500.171	164.306	-414.914	1396.184	201.219	-213.441	1434.800	219.857	-425.748
